<svg className="stroke-icon-active" width="32" height="32" viewBox="0 0 32 32" fill="none" xmlns="http://www.w3.org/2000/svg">
<path d="M18.6934 4.99266C18.8101 4.87282 19.0063 4.69239 19.2802 4.53307C20.3798 3.89488 21.6162 4.25254 24.5189 5.24747C27.394 6.23322 28.4812 6.67031 29.6523 6.13267C30.1255 5.9155 30.4595 5.6088 30.6667 5.38521" stroke-width="2" stroke-miterlimit="10"/>
<path d="M14.3295 9.65879C14.4462 9.53896 14.6424 9.35852 14.9163 9.19921C16.0159 8.56102 17.2524 8.91868 20.155 9.91361C23.0301 10.8994 24.1173 11.3364 25.2884 10.7988C25.7616 10.5816 26.0956 10.2749 26.3028 10.0513" stroke-width="2" stroke-miterlimit="10"/>
<path d="M1.33337 23.7572C1.45013 23.6374 1.64634 23.4569 1.92023 23.2976C3.01977 22.6594 4.25626 23.0171 7.15896 24.012C10.034 24.9977 11.1212 25.4348 12.2923 24.8972C12.7655 24.68 13.0995 24.3733 13.3067 24.1497" stroke-width="2" stroke-miterlimit="10"/>
<path d="M5.60107 18.9906C5.71783 18.8707 5.91404 18.6903 6.18793 18.531C7.28747 17.8928 8.52396 18.2505 11.4267 19.2454C14.3017 20.2311 15.3889 20.6682 16.56 20.1306C17.0332 19.9134 17.3672 19.6067 17.5744 19.3831" stroke-width="2" stroke-miterlimit="10"/>
<path d="M9.96509 14.3244C10.0818 14.2046 10.2781 14.0242 10.5519 13.8649C11.6515 13.2267 12.888 13.5843 15.7907 14.5793C18.6657 15.565 19.753 16.0021 20.924 15.4645C21.3972 15.2473 21.7313 14.9406 21.9384 14.717" stroke-width="2" stroke-miterlimit="10"/>
</svg>
